<?xml version="1.0" encoding="UTF-8"?>
<svg version="1.1" xmlns="http://www.w3.org/2000/svg" width="180" height="180">
<path d="M0 0 C59.4 0 118.8 0 180 0 C180 59.4 180 118.8 180 180 C120.6 180 61.2 180 0 180 C0 120.6 0 61.2 0 0 Z " fill="#05671B" transform="translate(0,0)"/>
<path d="M0 0 C2.46364235 2.42767677 4.63324592 4.76473626 5.63671875 8.14453125 C6.08660156 8.75683594 6.53648438 9.36914062 7 10 C9.73171446 10.38724304 12.14038166 10.56007998 14.875 10.5625 C22.30000091 10.60898927 22.30000091 10.60898927 25.43359375 12.359375 C31.6209364 18.83988351 30.42564357 32.49217018 30.28125 40.984375 C29.98883125 47.32986191 27.64999807 51.43703903 23.25 56 C22.5075 56.66 21.765 57.32 21 58 C21.53625 58.226875 22.0725 58.45375 22.625 58.6875 C30.57841215 63.08280671 35.40865251 69.59325311 37.97265625 78.3046875 C38.76026869 81.85883813 39.41042563 85.40789127 40 89 C40.20496094 90.1446875 40.40992188 91.289375 40.62109375 92.46875 C41.43717864 97.28646496 42.14709355 102.11955832 42.4375 107 C42.47746094 107.66 42.51742187 108.32 42.55859375 109 C41.63274605 112.31492322 39.90190177 114.28800771 37 116 C32.95339105 116.75949436 28.9446001 116.67238265 24.83764648 116.63110352 C22.98813385 116.64183647 22.98813385 116.64183647 21.10125732 116.65278625 C17.72687182 116.66678475 14.35402184 116.65838006 10.97976184 116.63869596 C7.44622066 116.62229113 3.9127289 116.63112471 0.37916565 116.63621521 C-5.55325956 116.64073357 -11.48536919 116.62488124 -17.41772461 116.59692383 C-24.27470283 116.56485797 -31.13111243 116.56489398 -37.98813111 116.5821386 C-44.58818281 116.59800491 -51.18802618 116.59127054 -57.78806877 116.57420158 C-60.59544361 116.56733212 -63.4026514 116.56836229 -66.21002388 116.57574654 C-70.12924999 116.58483358 -74.04789211 116.56087105 -77.96704102 116.53344727 C-79.13234848 116.53997314 -80.29765594 116.54649902 -81.49827576 116.55322266 C-82.56514618 116.5404982 -83.6320166 116.52777374 -84.73121643 116.5146637 C-85.65757684 116.51185678 -86.58393724 116.50904985 -87.53836918 116.50615788 C-90.75442075 115.84487682 -91.9625059 114.51811251 -94 112 C-96.74522505 99.36731183 -90.99806468 82.85899008 -88.875 70.1875 C-88.59497553 68.51238259 -88.31502712 66.83725246 -88.03515625 65.16210938 C-87.35764549 61.10792613 -86.67911304 57.05391514 -86 53 C-82.7 53 -79.4 53 -76 53 C-77.2065625 50.89625 -77.2065625 50.89625 -78.4375 48.75 C-81.83916445 42.81889276 -82.20610827 37.96543418 -82.25 31.25 C-82.270625 30.4765625 -82.29125 29.703125 -82.3125 28.90625 C-82.35474568 22.61164299 -81.48900608 16.9248689 -77.3046875 12.0078125 C-74.57587023 10.81453308 -72.21631834 10.78958209 -69.26391602 10.83935547 C-62.62206038 11.08487379 -62.62206038 11.08487379 -56.93359375 8.1875 C-55.528847 5.88495987 -55.528847 5.88495987 -54.3515625 3.42578125 C-51.18324893 -2.26070061 -45.02227465 -5.90906624 -39 -8 C-24.31896187 -10.62161395 -11.83257118 -9.48903281 0 0 Z " fill="#F4DDC0" transform="translate(116,30)"/>
<path d="M0 0 C13.86 0 27.72 0 42 0 C46.08205128 20.41025641 46.08205128 20.41025641 42.1875 27.125 C38.04639204 31.51260248 32.25051101 34.16958098 27 37 C29.42557715 39.74090218 32.00119163 41.16540861 35.25 42.8125 C42.92264705 46.93299564 48.25457802 50.44413691 51 59 C52.04685793 63.39020152 52.87660668 67.8109103 53.6875 72.25 C53.91244141 73.43335937 54.13738281 74.61671875 54.36914062 75.8359375 C56 84.54046353 56 84.54046353 56 88 C37.52 88 19.04 88 0 88 C0 58.96 0 29.92 0 0 Z " fill="#5722AA" transform="translate(94,50)"/>
<path d="M0 0 C14.19 0 28.38 0 43 0 C43 11.22 43 22.44 43 34 C36.73 34 30.46 34 24 34 C26.74360342 37.42950428 28.69832124 39.76277219 31.9375 42.4375 C36.42670006 46.28299726 40.83521653 50.37228418 43 56 C43.22705078 59.39160156 43.22705078 59.39160156 43.1953125 63.390625 C43.19031738 64.68000977 43.18532227 65.96939453 43.18017578 67.29785156 C43.16196777 68.93206055 43.14375977 70.56626953 43.125 72.25 C43.08375 77.4475 43.0425 82.645 43 88 C24.85 88 6.7 88 -12 88 C-12 80.125 -12 80.125 -11.44921875 76.53344727 C-11.26903198 75.33299522 -11.26903198 75.33299522 -11.08520508 74.10829163 C-10.88834106 72.85005836 -10.88834106 72.85005836 -10.6875 71.56640625 C-10.55432373 70.68846909 -10.42114746 69.81053192 -10.28393555 68.9059906 C-9.86080624 66.12406106 -9.43051872 63.34329456 -9 60.5625 C-8.71046259 58.6673902 -8.4213952 56.77220854 -8.1328125 54.87695312 C-7.42818351 50.25029438 -6.71386951 45.62527956 -6 41 C6.375 40.505 6.375 40.505 19 40 C14.2479408 35.94185836 14.2479408 35.94185836 9.48730469 31.89379883 C5.38556114 28.3651741 1.4586892 24.9173784 -1 20 C-1.09798621 17.93940759 -1.12974779 15.87541537 -1.125 13.8125 C-1.12757812 12.70519531 -1.13015625 11.59789062 -1.1328125 10.45703125 C-0.9982153 6.95354538 -0.49583323 3.47083262 0 0 Z " fill="#5823AA" transform="translate(43,50)"/>
<path d="M0 0 C1.09558084 2.19116168 2.18747493 4.38423654 3.26171875 6.5859375 C7.70400884 15.27578716 12.35651829 20.29624612 21.33911324 24.16514587 C26.40734031 25.75530384 31.52784418 25.55411769 36.79663086 25.51757812 C38.04984634 25.5245874 39.30306183 25.53159668 40.59425354 25.53881836 C44.00785131 25.55333686 47.42047033 25.55003319 50.83401179 25.53730202 C54.4221143 25.52711104 58.01017755 25.53658471 61.59828186 25.54284668 C67.62280706 25.55010642 73.64713558 25.54058061 79.67163086 25.52148438 C86.61489929 25.49972856 93.55769756 25.50676404 100.50095457 25.52879 C106.48429831 25.54700386 112.46750136 25.54947296 118.4508639 25.53903532 C122.01475979 25.53283181 125.57843549 25.53187699 129.14231682 25.54518127 C133.11971861 25.55899425 137.09660361 25.53979264 141.07397461 25.51757812 C142.23947845 25.52567505 143.4049823 25.53377197 144.60580444 25.54211426 C154.05635193 25.44472941 162.63293238 23.19503414 170 17 C174.22111142 11.76250303 176.91681901 6.36527525 179 0 C179.33 0 179.66 0 180 0 C180 8.91 180 17.82 180 27 C120.6 27 61.2 27 0 27 C0 18.09 0 9.18 0 0 Z " fill="#F3F8F4" transform="translate(0,153)"/>
<path d="M0 0 C3.34776942 2.26950013 5.37861079 4.31929017 7.546875 7.7265625 C7.546875 8.3865625 7.546875 9.0465625 7.546875 9.7265625 C-7.633125 9.7265625 -22.813125 9.7265625 -38.453125 9.7265625 C-35.80462669 3.10531674 -32.3336946 0.45490426 -26.328125 -3.1484375 C-17.16366882 -6.53129045 -8.26864419 -4.61556594 0 0 Z " fill="#146D24" transform="translate(105.453125,32.2734375)"/>
<path d="M0 0 C8.58 0 17.16 0 26 0 C26 8.58 26 17.16 26 26 C25.67 26 25.34 26 25 26 C24.82984375 25.41992188 24.6596875 24.83984375 24.484375 24.2421875 C21.9573325 16.09650794 18.27995857 9.71211864 11 5 C7.40057778 3.42828464 3.7526604 2.15362074 0 1 C0 0.67 0 0.34 0 0 Z " fill="#F4F8F5" transform="translate(154,0)"/>
<path d="M0 0 C7.92 0 15.84 0 24 0 C21.68330248 1.54446501 19.75183254 2.58169002 17.25 3.6875 C9.5973478 7.52789347 5.61637268 12.64526403 2.82421875 20.66796875 C2 23 2 23 0 27 C0 18.09 0 9.18 0 0 Z " fill="#F6F9F7" transform="translate(0,0)"/>
<path d="M0 0 C5.94 0 11.88 0 18 0 C18 0.33 18 0.66 18 1 C17.01257813 1.04898438 16.02515625 1.09796875 15.0078125 1.1484375 C13.72648437 1.22320312 12.44515625 1.29796875 11.125 1.375 C9.21074219 1.47941406 9.21074219 1.47941406 7.2578125 1.5859375 C3.91938301 1.67241106 3.91938301 1.67241106 2 4 C1.34 2.68 0.68 1.36 0 0 Z " fill="#E0C8C1" transform="translate(67,84)"/>
</svg>
